<?xml version="1.0" standalone="no"?>
<!DOCTYPE svg PUBLIC "-//W3C//DTD SVG 20010904//EN"
        "http://www.w3.org/TR/2001/REC-SVG-20010904/DTD/svg10.dtd">
<svg version="1.0" xmlns="http://www.w3.org/2000/svg"
     width="640.000000pt" height="640.000000pt" viewBox="0 0 640.000000 640.000000"
     preserveAspectRatio="xMidYMid meet">
    <metadata>
        Created by potrace 1.11, written by Peter Selinger 2001-2013
    </metadata>
    <g transform="translate(0.000000,640.000000) scale(0.100000,-0.100000)"
       fill="#000000" stroke="none">
        <path d="M645 6383 c-324 -69 -562 -310 -629 -635 -14 -69 -16 -332 -16 -2548
0 -2216 2 -2479 16 -2548 68 -330 305 -567 639 -637 105 -22 4985 -22 5090 0
336 70 570 304 640 640 13 60 15 412 15 2543 0 2703 4 2532 -56 2691 -74 197
-251 376 -448 452 -163 63 20 59 -2703 58 -2161 -1 -2487 -3 -2548 -16z m2757
-1514 c143 -31 249 -138 260 -264 l3 -40 -108 -3 c-92 -2 -107 0 -107 13 0 9
-9 33 -20 54 -27 55 -76 76 -170 75 -110 0 -169 -35 -170 -100 0 -59 47 -85
250 -139 206 -55 285 -105 331 -209 16 -37 22 -70 22 -125 0 -101 -27 -164
-100 -231 -77 -71 -158 -95 -313 -95 -177 0 -282 43 -354 142 -34 46 -76 154
-76 192 0 20 1 20 151 37 l56 6 6 -39 c15 -88 91 -151 196 -160 78 -7 138 11
183 57 33 32 38 44 38 82 0 79 -28 96 -270 159 -124 32 -201 71 -252 128 -51
56 -68 104 -68 187 1 132 89 234 235 270 64 16 209 17 277 3z m-1395 -36 c87
-338 178 -661 184 -651 4 7 44 155 88 328 45 173 86 325 91 338 9 21 13 22
165 22 l155 0 0 -525 0 -526 -97 3 -98 3 -5 393 -5 393 -99 -395 -98 -396
-102 0 -101 0 -102 403 -101 402 -1 -402 -1 -403 -100 0 -100 0 0 525 0 525
159 0 159 0 9 -37z m2075 -340 c3 -334 5 -382 20 -409 39 -72 119 -110 213
-102 67 6 115 30 145 75 l25 36 3 389 3 388 105 0 104 0 0 -362 c0 -385 -7
-462 -44 -537 -63 -122 -208 -181 -411 -168 -155 11 -240 49 -305 139 -61 83
-63 104 -68 536 l-4 392 106 0 105 0 3 -377z m769 -996 c19 -12 44 -42 57 -67
l22 -44 -1 -956 c0 -705 -4 -963 -12 -985 -19 -48 -41 -74 -83 -95 -37 -20
-70 -20 -1634 -20 -1564 0 -1597 0 -1634 20 -42 21 -64 47 -83 95 -8 22 -12
280 -12 986 l-1 956 23 44 c13 24 38 54 57 67 l33 22 1617 0 1617 0 34 -23z"/>
        <path d="M1770 2480 l0 -670 129 0 130 0 3 318 c3 336 7 360 56 416 44 50 149
70 217 42 69 -29 69 -30 75 -421 l5 -350 128 -3 127 -3 0 359 c0 284 -3 369
-15 415 -38 147 -141 217 -319 217 -89 0 -183 -20 -234 -51 -18 -10 -35 -19
-38 -19 -2 0 -4 95 -4 210 l0 210 -130 0 -130 0 0 -670z"/>
        <path d="M3800 2480 l0 -670 120 0 120 0 0 35 0 34 48 -29 c98 -61 243 -77
354 -39 146 49 234 157 274 335 24 112 16 294 -19 387 -47 129 -125 206 -247
247 -117 39 -286 23 -378 -37 -13 -8 -25 -13 -27 -11 -2 2 0 93 4 203 4 110 6
203 4 208 -2 4 -60 7 -129 7 l-124 0 0 -670z m550 100 c81 -41 113 -120 113
-280 0 -159 -27 -226 -111 -277 -68 -42 -150 -28 -215 35 -57 55 -79 125 -79
252 0 149 28 217 110 267 48 30 127 31 182 3z"/>
        <path d="M2783 2408 c4 -402 5 -413 60 -495 25 -37 47 -56 102 -83 66 -33 75
-35 170 -34 85 0 110 5 165 27 35 15 79 42 97 59 l33 32 0 -52 0 -52 120 0
120 0 0 485 0 485 -129 0 -130 0 -3 -329 -3 -329 -30 -43 c-40 -56 -95 -84
-165 -84 -63 1 -102 22 -128 69 -15 27 -17 74 -20 374 l-3 342 -130 0 -131 0
5 -372z"/>
    </g>
</svg>
